<?xml version="1.0" encoding="utf-8"?>
<!-- Generator: Adobe Illustrator 23.0.5, SVG Export Plug-In . SVG Version: 6.00 Build 0)  -->
<svg version="1.1" id="Слой_1" xmlns="http://www.w3.org/2000/svg" xmlns:xlink="http://www.w3.org/1999/xlink" x="0px" y="0px"
	 viewBox="0 0 18 24" style="enable-background:new 0 0 18 24;" xml:space="preserve">
<path d="M9,23.5l-0.5-0.4C8.1,22.9,0,16.9,0,9.5c0-5,4-9,9-9s9,4,9,9c0,7.4-8.1,13.4-8.5,13.7L9,23.5z M9,2.3c-4,0-7.2,3.2-7.2,7.2
	c0,5.4,5.4,10.3,7.2,11.8c1.8-1.4,7.2-6.3,7.2-11.8C16.2,5.5,13,2.3,9,2.3z"/>
<path d="M9.3,13.7c-2.2,0-4-1.8-4-4s1.8-4,4-4c2.2,0,4,1.8,4,4S11.5,13.7,9.3,13.7z M9.3,7.9c-1,0-1.8,0.8-1.8,1.8s0.8,1.8,1.8,1.8
	c1,0,1.8-0.8,1.8-1.8S10.3,7.9,9.3,7.9z"/>
</svg>
