<?xml version="1.0" encoding="utf-8"?>
<!-- Generator: Adobe Illustrator 23.0.1, SVG Export Plug-In . SVG Version: 6.00 Build 0)  -->
<svg version="1.1" id="Слой_1" xmlns="http://www.w3.org/2000/svg" xmlns:xlink="http://www.w3.org/1999/xlink" x="0px" y="0px"
	 viewBox="0 0 31 31" style="enable-background:new 0 0 31 31;" xml:space="preserve">
<style type="text/css">
	.st0{fill:#1A7E38;}
</style>
<path class="st0" d="M1,0h3c0.6,0,1,0.4,1,1v3c0,0.6-0.4,1-1,1H1C0.4,5,0,4.6,0,4V1C0,0.4,0.4,0,1,0z"/>
<path class="st0" d="M27,0h3c0.6,0,1,0.4,1,1v3c0,0.6-0.4,1-1,1h-3c-0.6,0-1-0.4-1-1V1C26,0.4,26.4,0,27,0z"/>
<path class="st0" d="M14,13h3c0.6,0,1,0.4,1,1v3c0,0.6-0.4,1-1,1h-3c-0.6,0-1-0.4-1-1v-3C13,13.4,13.4,13,14,13z"/>
<path class="st0" d="M1,26h3c0.6,0,1,0.4,1,1v3c0,0.6-0.4,1-1,1H1c-0.6,0-1-0.4-1-1v-3C0,26.4,0.4,26,1,26z"/>
<path class="st0" d="M27,26h3c0.6,0,1,0.4,1,1v3c0,0.6-0.4,1-1,1h-3c-0.6,0-1-0.4-1-1v-3C26,26.4,26.4,26,27,26z"/>
</svg>
