<svg width="24" height="24" viewBox="0 0 24 24" fill="none" xmlns="http://www.w3.org/2000/svg">
<g clip-path="url(#clip0_461_5495)">
<path fill-rule="evenodd" clip-rule="evenodd" d="M16.8125 2.06256H19.5625C21.4875 2.06256 23 3.57504 23 5.50007V19.8751C23 21.8001 21.4875 23.3126 19.5625 23.3126H4.4375C2.51248 23.3126 1 21.8001 1 19.8751V5.50007C1 3.57504 2.51248 2.06256 4.4375 2.06256H7.18747V1.37503C7.18747 0.962481 7.46253 0.6875 7.875 0.6875C8.28756 0.6875 8.56254 0.96256 8.56254 1.37503V2.06256H15.4375V1.37503C15.4375 0.962481 15.7124 0.6875 16.125 0.6875C16.5375 0.6875 16.8125 0.96256 16.8125 1.37503V2.06256ZM4.4375 3.43755C3.3375 3.43755 2.37499 4.40006 2.37499 5.50007V7.56258H21.6251V5.50007C21.6251 4.40006 20.6626 3.43755 19.5626 3.43755H16.8126V4.12508C16.8126 4.53763 16.5376 4.81261 16.1251 4.81261C15.7125 4.81261 15.4375 4.53755 15.4375 4.12508V3.43755H8.56254V4.12508C8.56254 4.53763 8.28748 4.81261 7.875 4.81261C7.46245 4.81261 7.18747 4.53755 7.18747 4.12508V3.43755H4.4375ZM19.5625 21.9376C20.6625 21.9376 21.625 20.9751 21.625 19.8751V8.93757H2.37499V19.8751C2.37499 20.9751 3.3375 21.9376 4.4375 21.9376H19.5625ZM5.75 14.2188C5.97499 14.2188 6.12502 14.1438 6.27501 13.9938C6.425 13.8438 6.5 13.6187 6.5 13.4688C6.5 13.3188 6.425 13.0937 6.27501 12.9437C5.97503 12.6438 5.52501 12.6438 5.22499 12.9437C5.075 13.0937 5 13.2437 5 13.4688C5 13.6938 5.075 13.8438 5.22499 13.9938C5.37498 14.1438 5.52501 14.2188 5.75 14.2188ZM5.75 18.6258C5.97498 18.6258 6.12501 18.5508 6.275 18.4008C6.425 18.2508 6.49999 18.0258 6.49999 17.8758C6.49999 17.7258 6.425 17.5008 6.275 17.3508C5.97502 17.0508 5.52501 17.0508 5.22499 17.3508C5.075 17.5008 5 17.6508 5 17.8758C5 18.0258 5.075 18.2508 5.22499 18.4008C5.37498 18.5508 5.52501 18.6258 5.75 18.6258ZM10.4 18.4008C10.25 18.5508 10.1 18.6258 9.875 18.6258C9.65001 18.6258 9.49998 18.5508 9.34999 18.4008C9.2 18.2508 9.125 18.0258 9.125 17.8758C9.125 17.7258 9.2 17.5008 9.34999 17.3508C9.65001 17.0508 10.1 17.0508 10.4 17.3508C10.55 17.5008 10.625 17.7258 10.625 17.8758C10.625 18.0258 10.55 18.2508 10.4 18.4008ZM10.25 14.2188C10.475 14.2188 10.625 14.1438 10.775 13.9938C10.925 13.8438 11 13.6187 11 13.4688C11 13.3188 10.925 13.0937 10.775 12.9437C10.475 12.6438 10.025 12.6438 9.72499 12.9437C9.575 13.0937 9.5 13.3188 9.5 13.4688C9.5 13.6187 9.575 13.8438 9.72499 13.9938C9.87498 14.1438 10.025 14.2188 10.25 14.2188ZM14.525 18.401C14.375 18.551 14.225 18.626 14 18.626C13.775 18.626 13.625 18.551 13.475 18.401C13.325 18.251 13.25 18.026 13.25 17.876C13.25 17.726 13.325 17.501 13.475 17.351C13.775 17.051 14.225 17.051 14.525 17.351C14.675 17.501 14.75 17.6509 14.75 17.876C14.75 18.101 14.675 18.251 14.525 18.401ZM14.75 14.2188C14.975 14.2188 15.125 14.1438 15.275 13.9938C15.425 13.8438 15.5 13.6938 15.5 13.4688C15.5 13.3188 15.425 13.0937 15.275 12.9437C14.975 12.6438 14.525 12.6438 14.225 12.9437C14.075 13.0937 14 13.3188 14 13.4688C14 13.6187 14.075 13.8438 14.225 13.9938C14.375 14.1438 14.525 14.2188 14.75 14.2188ZM18.65 18.401C18.5 18.551 18.35 18.626 18.125 18.626C17.9 18.626 17.75 18.551 17.6 18.401C17.45 18.251 17.375 18.026 17.375 17.876C17.375 17.6509 17.45 17.501 17.6 17.351C17.9 17.051 18.35 17.051 18.65 17.351C18.8 17.501 18.875 17.726 18.875 17.876C18.875 18.026 18.8 18.251 18.65 18.401ZM19.25 14.2188C19.475 14.2188 19.625 14.1438 19.775 13.9938C19.925 13.8438 20 13.6938 20 13.4688C20 13.3188 19.925 13.0937 19.775 12.9437C19.475 12.6438 19.025 12.6438 18.725 12.9437C18.575 13.0937 18.5 13.3188 18.5 13.4688C18.5 13.6187 18.575 13.8438 18.725 13.9938C18.875 14.1438 19.025 14.2188 19.25 14.2188Z" fill="#1A7E38"/>
<path d="M16.8125 2.06256H16.6625V2.21256H16.8125V2.06256ZM7.18747 2.06256V2.21256H7.33747V2.06256H7.18747ZM8.56254 2.06256H8.41254V2.21256H8.56254V2.06256ZM15.4375 2.06256V2.21256H15.5875V2.06256H15.4375ZM2.37499 7.56258H2.22499V7.71258H2.37499V7.56258ZM21.6251 7.56258V7.71258H21.7751V7.56258H21.6251ZM16.8126 3.43755V3.28755H16.6626V3.43755H16.8126ZM15.4375 3.43755H15.5875V3.28755H15.4375V3.43755ZM8.56254 3.43755V3.28755H8.41254V3.43755H8.56254ZM7.18747 3.43755H7.33747V3.28755H7.18747V3.43755ZM21.625 8.93757H21.775V8.78757H21.625V8.93757ZM2.37499 8.93757V8.78757H2.22499V8.93757H2.37499ZM6.27501 13.9938L6.16895 13.8877L6.27501 13.9938ZM5.22499 12.9437L5.11893 12.8377L5.11892 12.8377L5.22499 12.9437ZM5.22499 13.9938L5.33105 13.8877H5.33105L5.22499 13.9938ZM6.275 17.3508L6.38107 17.2447H6.38107L6.275 17.3508ZM5.22499 17.3508L5.11893 17.2447L5.11892 17.2447L5.22499 17.3508ZM10.4 18.4008L10.5061 18.5069L10.4 18.4008ZM9.34999 18.4008L9.24392 18.5069L9.34999 18.4008ZM9.34999 17.3508L9.24393 17.2447L9.24392 17.2447L9.34999 17.3508ZM10.4 17.3508L10.5061 17.2447H10.5061L10.4 17.3508ZM9.72499 12.9437L9.61893 12.8377L9.61892 12.8377L9.72499 12.9437ZM9.72499 13.9938L9.83105 13.8877V13.8877L9.72499 13.9938ZM14.525 18.401L14.6311 18.5071H14.6311L14.525 18.401ZM13.475 18.401L13.3689 18.5071H13.3689L13.475 18.401ZM13.475 17.351L13.3689 17.2449L13.3689 17.2449L13.475 17.351ZM14.525 17.351L14.6311 17.2449H14.6311L14.525 17.351ZM14.225 12.9437L14.1189 12.8377L14.1189 12.8377L14.225 12.9437ZM14.225 13.9938L14.3311 13.8877H14.3311L14.225 13.9938ZM18.65 18.401L18.7561 18.5071L18.65 18.401ZM17.6 18.401L17.4939 18.5071L17.6 18.401ZM17.6 17.351L17.4939 17.2449L17.4939 17.2449L17.6 17.351ZM18.65 17.351L18.7561 17.2449L18.65 17.351ZM19.775 13.9938L19.6689 13.8877V13.8877L19.775 13.9938ZM19.775 12.9437L19.6689 13.0498V13.0498L19.775 12.9437ZM18.725 12.9437L18.6189 12.8377L18.6189 12.8377L18.725 12.9437ZM18.725 13.9938L18.8311 13.8877L18.725 13.9938ZM19.5625 1.91256H16.8125V2.21256H19.5625V1.91256ZM23.15 5.50007C23.15 3.4922 21.5704 1.91256 19.5625 1.91256V2.21256C21.4047 2.21256 22.85 3.65788 22.85 5.50007H23.15ZM23.15 19.8751V5.50007H22.85V19.8751H23.15ZM19.5625 23.4626C21.5704 23.4626 23.15 21.883 23.15 19.8751H22.85C22.85 21.7173 21.4047 23.1626 19.5625 23.1626V23.4626ZM4.4375 23.4626H19.5625V23.1626H4.4375V23.4626ZM0.85 19.8751C0.85 21.883 2.42963 23.4626 4.4375 23.4626V23.1626C2.59532 23.1626 1.15 21.7173 1.15 19.8751H0.85ZM0.85 5.50007V19.8751H1.15V5.50007H0.85ZM4.4375 1.91256C2.42963 1.91256 0.85 3.4922 0.85 5.50007H1.15C1.15 3.65788 2.59532 2.21256 4.4375 2.21256V1.91256ZM7.18747 1.91256H4.4375V2.21256H7.18747V1.91256ZM7.03747 1.37503V2.06256H7.33747V1.37503H7.03747ZM7.875 0.5375C7.63468 0.5375 7.42274 0.618261 7.2705 0.770489C7.11826 0.922719 7.03747 1.13466 7.03747 1.37503H7.33747C7.33747 1.20285 7.39422 1.07103 7.48262 0.98263C7.57103 0.894229 7.70285 0.8375 7.875 0.8375V0.5375ZM8.71254 1.37503C8.71254 1.13471 8.63178 0.922767 8.47955 0.770527C8.32732 0.618285 8.11537 0.5375 7.875 0.5375V0.8375C8.04719 0.8375 8.17901 0.894245 8.26741 0.982651C8.35581 1.07106 8.41254 1.20288 8.41254 1.37503H8.71254ZM8.71254 2.06256V1.37503H8.41254V2.06256H8.71254ZM15.4375 1.91256H8.56254V2.21256H15.4375V1.91256ZM15.2875 1.37503V2.06256H15.5875V1.37503H15.2875ZM16.125 0.5375C15.8846 0.5375 15.6727 0.618258 15.5205 0.770493C15.3682 0.922729 15.2875 1.13468 15.2875 1.37503H15.5875C15.5875 1.20284 15.6442 1.07102 15.7326 0.982625C15.821 0.894233 15.9528 0.8375 16.125 0.8375V0.5375ZM16.9625 1.37503C16.9625 1.13471 16.8818 0.922767 16.7295 0.770527C16.5773 0.618285 16.3654 0.5375 16.125 0.5375V0.8375C16.2972 0.8375 16.429 0.894245 16.5174 0.982651C16.6058 1.07106 16.6625 1.20288 16.6625 1.37503H16.9625ZM16.9625 2.06256V1.37503H16.6625V2.06256H16.9625ZM2.52499 5.50007C2.52499 4.48291 3.42034 3.58755 4.4375 3.58755V3.28755C3.25466 3.28755 2.22499 4.31722 2.22499 5.50007H2.52499ZM2.52499 7.56258V5.50007H2.22499V7.56258H2.52499ZM21.6251 7.41258H2.37499V7.71258H21.6251V7.41258ZM21.4751 5.50007V7.56258H21.7751V5.50007H21.4751ZM19.5626 3.58755C20.5797 3.58755 21.4751 4.48291 21.4751 5.50007H21.7751C21.7751 4.31722 20.7454 3.28755 19.5626 3.28755V3.58755ZM16.8126 3.58755H19.5626V3.28755H16.8126V3.58755ZM16.9626 4.12508V3.43755H16.6626V4.12508H16.9626ZM16.1251 4.96261C16.3654 4.96261 16.5774 4.88186 16.7296 4.72962C16.8818 4.57738 16.9626 4.36544 16.9626 4.12508H16.6626C16.6626 4.29728 16.6059 4.42909 16.5175 4.51749C16.4291 4.60588 16.2973 4.66261 16.1251 4.66261V4.96261ZM15.2875 4.12508C15.2875 4.3654 15.3683 4.57735 15.5205 4.72959C15.6728 4.88183 15.8847 4.96261 16.1251 4.96261V4.66261C15.9529 4.66261 15.8211 4.60587 15.7327 4.51746C15.6443 4.42905 15.5875 4.29723 15.5875 4.12508H15.2875ZM15.2875 3.43755V4.12508H15.5875V3.43755H15.2875ZM8.56254 3.58755H15.4375V3.28755H8.56254V3.58755ZM8.71254 4.12508V3.43755H8.41254V4.12508H8.71254ZM7.875 4.96261C8.11533 4.96261 8.32727 4.88185 8.47951 4.72962C8.63175 4.57739 8.71254 4.36545 8.71254 4.12508H8.41254C8.41254 4.29726 8.35579 4.42908 8.26739 4.51748C8.17898 4.60588 8.04715 4.66261 7.875 4.66261V4.96261ZM7.03747 4.12508C7.03747 4.3654 7.11823 4.57735 7.27046 4.72959C7.42269 4.88183 7.63464 4.96261 7.875 4.96261V4.66261C7.70282 4.66261 7.571 4.60587 7.4826 4.51746C7.3942 4.42905 7.33747 4.29723 7.33747 4.12508H7.03747ZM7.03747 3.43755V4.12508H7.33747V3.43755H7.03747ZM4.4375 3.58755H7.18747V3.28755H4.4375V3.58755ZM21.475 19.8751C21.475 20.8923 20.5797 21.7876 19.5625 21.7876V22.0876C20.7453 22.0876 21.775 21.0579 21.775 19.8751H21.475ZM21.475 8.93757V19.8751H21.775V8.93757H21.475ZM2.37499 9.08757H21.625V8.78757H2.37499V9.08757ZM2.52499 19.8751V8.93757H2.22499V19.8751H2.52499ZM4.4375 21.7876C3.42034 21.7876 2.52499 20.8923 2.52499 19.8751H2.22499C2.22499 21.0579 3.25466 22.0876 4.4375 22.0876V21.7876ZM19.5625 21.7876H4.4375V22.0876H19.5625V21.7876ZM6.16895 13.8877C6.10281 13.9538 6.04262 13.9975 5.97972 14.0254C5.91746 14.0531 5.84499 14.0688 5.75 14.0688V14.3687C5.88 14.3687 5.99504 14.3469 6.10154 14.2996C6.2074 14.2525 6.29722 14.1837 6.38108 14.0998L6.16895 13.8877ZM6.35 13.4688C6.35 13.5816 6.28896 13.7677 6.16895 13.8877L6.38108 14.0998C6.56105 13.9199 6.65 13.6558 6.65 13.4688H6.35ZM6.16895 13.0498C6.28896 13.1698 6.35 13.3559 6.35 13.4688H6.65C6.65 13.2817 6.56105 13.0176 6.38108 12.8377L6.16895 13.0498ZM5.33105 13.0498C5.5725 12.8084 5.92755 12.8084 6.16895 13.0498L6.38108 12.8377C6.02251 12.4791 5.47753 12.4791 5.11893 12.8377L5.33105 13.0498ZM5.15 13.4688C5.15 13.3737 5.16566 13.3013 5.19332 13.239C5.22127 13.1761 5.26491 13.1159 5.33105 13.0498L5.11892 12.8377C5.03507 12.9215 4.96622 13.0113 4.91917 13.1172C4.87184 13.2237 4.85 13.3387 4.85 13.4688H5.15ZM5.33105 13.8877C5.26491 13.8216 5.22127 13.7614 5.19332 13.6985C5.16566 13.6362 5.15 13.5638 5.15 13.4688H4.85C4.85 13.5988 4.87184 13.7138 4.91917 13.8203C4.96622 13.9262 5.03507 14.016 5.11892 14.0998L5.33105 13.8877ZM5.75 14.0688C5.65501 14.0688 5.58254 14.0531 5.52028 14.0254C5.45738 13.9975 5.39719 13.9538 5.33105 13.8877L5.11892 14.0998C5.20278 14.1837 5.2926 14.2525 5.39846 14.2996C5.50496 14.3469 5.62 14.3687 5.75 14.3687V14.0688ZM6.16894 18.2948C6.1028 18.3609 6.04262 18.4045 5.97971 18.4325C5.91745 18.4602 5.84499 18.4758 5.75 18.4758V18.7758C5.87999 18.7758 5.99503 18.754 6.10154 18.7066C6.20739 18.6596 6.29721 18.5908 6.38107 18.5069L6.16894 18.2948ZM6.34999 17.8758C6.34999 17.9887 6.28895 18.1747 6.16894 18.2948L6.38107 18.5069C6.56104 18.3269 6.64999 18.0629 6.64999 17.8758H6.34999ZM6.16894 17.4569C6.28895 17.5769 6.34999 17.7629 6.34999 17.8758H6.64999C6.64999 17.6887 6.56104 17.4247 6.38107 17.2447L6.16894 17.4569ZM5.33104 17.4569C5.5725 17.2155 5.92754 17.2155 6.16894 17.4569L6.38107 17.2447C6.02251 16.8862 5.47752 16.8862 5.11893 17.2447L5.33104 17.4569ZM5.15 17.8758C5.15 17.7808 5.16566 17.7083 5.19332 17.6461C5.22127 17.5832 5.26491 17.523 5.33105 17.4569L5.11892 17.2447C5.03507 17.3286 4.96622 17.4184 4.91917 17.5243C4.87184 17.6308 4.85 17.7458 4.85 17.8758H5.15ZM5.33105 18.2948C5.21104 18.1747 5.15 17.9887 5.15 17.8758H4.85C4.85 18.0629 4.93895 18.3269 5.11892 18.5069L5.33105 18.2948ZM5.75 18.4758C5.655 18.4758 5.58254 18.4602 5.52028 18.4325C5.45738 18.4045 5.39719 18.3609 5.33105 18.2948L5.11892 18.5069C5.20278 18.5908 5.2926 18.6596 5.39845 18.7066C5.50496 18.754 5.62 18.7758 5.75 18.7758V18.4758ZM9.875 18.7758C10.005 18.7758 10.12 18.754 10.2265 18.7066C10.3324 18.6596 10.4222 18.5908 10.5061 18.5069L10.2939 18.2948C10.2278 18.3609 10.1676 18.4045 10.1047 18.4325C10.0425 18.4602 9.96999 18.4758 9.875 18.4758V18.7758ZM9.24392 18.5069C9.32778 18.5908 9.4176 18.6596 9.52345 18.7066C9.62996 18.754 9.745 18.7758 9.875 18.7758V18.4758C9.78 18.4758 9.70754 18.4602 9.64528 18.4325C9.58237 18.4045 9.52219 18.3609 9.45605 18.2948L9.24392 18.5069ZM8.975 17.8758C8.975 18.0629 9.06395 18.3269 9.24392 18.5069L9.45605 18.2948C9.33604 18.1747 9.275 17.9887 9.275 17.8758H8.975ZM9.24392 17.2447C9.06395 17.4247 8.975 17.6887 8.975 17.8758H9.275C9.275 17.7629 9.33604 17.5769 9.45605 17.4569L9.24392 17.2447ZM10.5061 17.2447C10.1475 16.8862 9.60252 16.8862 9.24393 17.2447L9.45604 17.4569C9.69749 17.2155 10.0525 17.2155 10.2939 17.4569L10.5061 17.2447ZM10.775 17.8758C10.775 17.6887 10.686 17.4247 10.5061 17.2447L10.2939 17.4569C10.414 17.5769 10.475 17.7629 10.475 17.8758H10.775ZM10.5061 18.5069C10.686 18.3269 10.775 18.0629 10.775 17.8758H10.475C10.475 17.9887 10.414 18.1747 10.2939 18.2948L10.5061 18.5069ZM10.6689 13.8877C10.6028 13.9538 10.5426 13.9975 10.4797 14.0254C10.4175 14.0531 10.345 14.0688 10.25 14.0688V14.3687C10.38 14.3687 10.495 14.3469 10.6015 14.2996C10.7074 14.2525 10.7972 14.1837 10.8811 14.0998L10.6689 13.8877ZM10.85 13.4688C10.85 13.5816 10.789 13.7677 10.6689 13.8877L10.8811 14.0998C11.061 13.9199 11.15 13.6558 11.15 13.4688H10.85ZM10.6689 13.0498C10.789 13.1698 10.85 13.3559 10.85 13.4688H11.15C11.15 13.2817 11.061 13.0176 10.8811 12.8377L10.6689 13.0498ZM9.83105 13.0498C10.0725 12.8084 10.4275 12.8084 10.6689 13.0498L10.8811 12.8377C10.5225 12.4791 9.97753 12.4791 9.61893 12.8377L9.83105 13.0498ZM9.65 13.4688C9.65 13.3559 9.71104 13.1698 9.83105 13.0498L9.61892 12.8377C9.43895 13.0176 9.35 13.2817 9.35 13.4688H9.65ZM9.83105 13.8877C9.71104 13.7677 9.65 13.5816 9.65 13.4688H9.35C9.35 13.6558 9.43895 13.9199 9.61892 14.0998L9.83105 13.8877ZM10.25 14.0688C10.155 14.0688 10.0825 14.0531 10.0203 14.0254C9.95738 13.9975 9.89719 13.9538 9.83105 13.8877L9.61892 14.0998C9.70278 14.1837 9.7926 14.2525 9.89846 14.2996C10.005 14.3469 10.12 14.3687 10.25 14.3687V14.0688ZM14 18.776C14.13 18.776 14.245 18.7541 14.3515 18.7068C14.4574 18.6598 14.5472 18.5909 14.6311 18.5071L14.4189 18.2949C14.3528 18.3611 14.2926 18.4047 14.2297 18.4327C14.1675 18.4603 14.095 18.476 14 18.476V18.776ZM13.3689 18.5071C13.4528 18.5909 13.5426 18.6598 13.6485 18.7068C13.755 18.7541 13.87 18.776 14 18.776V18.476C13.905 18.476 13.8325 18.4603 13.7703 18.4327C13.7074 18.4047 13.6472 18.3611 13.5811 18.2949L13.3689 18.5071ZM13.1 17.876C13.1 18.0631 13.189 18.3271 13.3689 18.5071L13.5811 18.2949C13.461 18.1749 13.4 17.9889 13.4 17.876H13.1ZM13.3689 17.2449C13.189 17.4249 13.1 17.6889 13.1 17.876H13.4C13.4 17.7631 13.461 17.577 13.5811 17.457L13.3689 17.2449ZM14.6311 17.2449C14.2725 16.8863 13.7275 16.8863 13.3689 17.2449L13.581 17.457C13.8225 17.2156 14.1775 17.2156 14.4189 17.457L14.6311 17.2449ZM14.9 17.876C14.9 17.746 14.8781 17.6309 14.8308 17.5244C14.7838 17.4186 14.7149 17.3287 14.6311 17.2449L14.4189 17.457C14.4851 17.5232 14.5287 17.5833 14.5567 17.6462C14.5843 17.7085 14.6 17.781 14.6 17.876H14.9ZM14.6311 18.5071C14.7149 18.4232 14.7838 18.3334 14.8308 18.2275C14.8781 18.121 14.9 18.006 14.9 17.876H14.6C14.6 17.971 14.5843 18.0435 14.5567 18.1057C14.5287 18.1686 14.4851 18.2288 14.4189 18.2949L14.6311 18.5071ZM15.1689 13.8877C15.1028 13.9538 15.0426 13.9975 14.9797 14.0254C14.9175 14.0531 14.845 14.0688 14.75 14.0688V14.3687C14.88 14.3687 14.995 14.3469 15.1015 14.2996C15.2074 14.2525 15.2972 14.1837 15.3811 14.0998L15.1689 13.8877ZM15.35 13.4688C15.35 13.5638 15.3343 13.6362 15.3067 13.6985C15.2787 13.7614 15.2351 13.8216 15.1689 13.8877L15.3811 14.0998C15.4649 14.016 15.5338 13.9262 15.5808 13.8203C15.6282 13.7138 15.65 13.5988 15.65 13.4688H15.35ZM15.1689 13.0498C15.289 13.1698 15.35 13.3559 15.35 13.4688H15.65C15.65 13.2817 15.561 13.0176 15.3811 12.8377L15.1689 13.0498ZM14.331 13.0498C14.5725 12.8084 14.9275 12.8084 15.1689 13.0498L15.3811 12.8377C15.0225 12.4791 14.4775 12.4791 14.1189 12.8377L14.331 13.0498ZM14.15 13.4688C14.15 13.3559 14.211 13.1698 14.3311 13.0498L14.1189 12.8377C13.939 13.0176 13.85 13.2817 13.85 13.4688H14.15ZM14.3311 13.8877C14.211 13.7677 14.15 13.5816 14.15 13.4688H13.85C13.85 13.6558 13.939 13.9199 14.1189 14.0998L14.3311 13.8877ZM14.75 14.0688C14.655 14.0688 14.5825 14.0531 14.5203 14.0254C14.4574 13.9975 14.3972 13.9538 14.3311 13.8877L14.1189 14.0998C14.2028 14.1837 14.2926 14.2525 14.3985 14.2996C14.505 14.3469 14.62 14.3687 14.75 14.3687V14.0688ZM18.125 18.776C18.255 18.776 18.37 18.7541 18.4765 18.7068C18.5824 18.6598 18.6722 18.5909 18.7561 18.5071L18.5439 18.2949C18.4778 18.3611 18.4176 18.4047 18.3547 18.4327C18.2924 18.4603 18.22 18.476 18.125 18.476V18.776ZM17.4939 18.5071C17.5778 18.5909 17.6676 18.6598 17.7735 18.7068C17.88 18.7541 17.995 18.776 18.125 18.776V18.476C18.03 18.476 17.9575 18.4603 17.8953 18.4327C17.8324 18.4047 17.7722 18.3611 17.7061 18.2949L17.4939 18.5071ZM17.225 17.876C17.225 18.0631 17.314 18.3271 17.4939 18.5071L17.7061 18.2949C17.586 18.1749 17.525 17.9889 17.525 17.876H17.225ZM17.4939 17.2449C17.4101 17.3287 17.3412 17.4186 17.2942 17.5244C17.2468 17.6309 17.225 17.746 17.225 17.876H17.525C17.525 17.781 17.5407 17.7085 17.5683 17.6462C17.5963 17.5833 17.6399 17.5232 17.7061 17.457L17.4939 17.2449ZM18.7561 17.2449C18.3975 16.8863 17.8525 16.8863 17.4939 17.2449L17.706 17.457C17.9475 17.2156 18.3025 17.2156 18.5439 17.457L18.7561 17.2449ZM19.025 17.876C19.025 17.6889 18.936 17.4249 18.7561 17.2449L18.5439 17.457C18.6639 17.577 18.725 17.7631 18.725 17.876H19.025ZM18.7561 18.5071C18.936 18.3271 19.025 18.0631 19.025 17.876H18.725C18.725 17.9889 18.6639 18.1749 18.5439 18.2949L18.7561 18.5071ZM19.6689 13.8877C19.6028 13.9538 19.5426 13.9975 19.4797 14.0254C19.4175 14.0531 19.345 14.0688 19.25 14.0688V14.3687C19.38 14.3687 19.495 14.3469 19.6015 14.2996C19.7074 14.2525 19.7972 14.1837 19.8811 14.0998L19.6689 13.8877ZM19.85 13.4688C19.85 13.5638 19.8343 13.6362 19.8067 13.6985C19.7787 13.7614 19.7351 13.8216 19.6689 13.8877L19.8811 14.0998C19.9649 14.016 20.0338 13.9262 20.0808 13.8203C20.1282 13.7138 20.15 13.5988 20.15 13.4688H19.85ZM19.6689 13.0498C19.789 13.1698 19.85 13.3559 19.85 13.4688H20.15C20.15 13.2817 20.061 13.0176 19.8811 12.8377L19.6689 13.0498ZM18.831 13.0498C19.0725 12.8084 19.4275 12.8084 19.6689 13.0498L19.8811 12.8377C19.5225 12.4791 18.9775 12.4791 18.6189 12.8377L18.831 13.0498ZM18.65 13.4688C18.65 13.3559 18.711 13.1698 18.8311 13.0498L18.6189 12.8377C18.439 13.0176 18.35 13.2817 18.35 13.4688H18.65ZM18.8311 13.8877C18.711 13.7677 18.65 13.5816 18.65 13.4688H18.35C18.35 13.6558 18.439 13.9199 18.6189 14.0998L18.8311 13.8877ZM19.25 14.0688C19.155 14.0688 19.0825 14.0531 19.0203 14.0254C18.9574 13.9975 18.8972 13.9538 18.8311 13.8877L18.6189 14.0998C18.7028 14.1837 18.7926 14.2525 18.8985 14.2996C19.005 14.3469 19.12 14.3687 19.25 14.3687V14.0688Z" fill="#1A7E38"/>
</g>
<defs>
<clipPath id="clip0_461_5495">
<rect width="24" height="24" fill="white"/>
</clipPath>
</defs>
</svg>
