<svg width="21" height="22" viewBox="0 0 21 22" fill="none" xmlns="http://www.w3.org/2000/svg">
<path d="M1.84846 21.1295C2.40297 21.1295 2.77275 20.9447 3.14242 20.575C3.51209 20.2054 3.69693 19.6508 3.69693 19.2811C3.69693 18.9114 3.51209 18.3568 3.14242 17.9871C2.40308 17.2478 1.29396 17.2478 0.554507 17.9871C0.184836 18.3568 0 18.7265 0 19.2811C0 19.8357 0.184836 20.2054 0.554507 20.575C0.924179 20.9447 1.29396 21.1295 1.84846 21.1295Z" fill="#279147"/>
<path d="M10.2474 21.1295C10.8019 21.1295 11.1717 20.9447 11.5413 20.575C11.911 20.2054 12.0959 19.6508 12.0959 19.2811C12.0959 18.9114 11.911 18.3568 11.5413 17.9871C10.802 17.2478 9.69288 17.2478 8.95343 17.9871C8.58376 18.3568 8.39893 18.9114 8.39893 19.2811C8.39893 19.6508 8.58376 20.2054 8.95343 20.575C9.3231 20.9447 9.69288 21.1295 10.2474 21.1295Z" fill="#279147"/>
<path d="M18.6463 21.1295C19.2008 21.1295 19.5706 20.9447 19.9403 20.575C20.3099 20.2054 20.4948 19.8357 20.4948 19.2811C20.4948 18.9114 20.3099 18.3568 19.9403 17.9871C19.2009 17.2478 18.0918 17.2478 17.3524 17.9871C16.9827 18.3568 16.7979 18.9114 16.7979 19.2811C16.7979 19.6508 16.9827 20.2054 17.3524 20.575C17.722 20.9447 18.0918 21.1295 18.6463 21.1295Z" fill="#279147"/>
<path d="M1.84846 12.5221C2.40297 12.5221 2.77275 12.3373 3.14242 11.9676C3.51209 11.5979 3.69693 11.0433 3.69693 10.6737C3.69693 10.304 3.51209 9.74937 3.14242 9.3797C2.40308 8.64036 1.29396 8.64036 0.554507 9.3797C0.184836 9.74937 0 10.119 0 10.6737C0 11.2283 0.184836 11.5979 0.554507 11.9676C0.924179 12.3373 1.29396 12.5221 1.84846 12.5221Z" fill="#279147"/>
<path d="M10.2474 12.5221C10.8019 12.5221 11.1717 12.3373 11.5413 11.9676C11.911 11.5979 12.0959 11.0433 12.0959 10.6737C12.0959 10.304 11.911 9.74937 11.5413 9.3797C10.802 8.64036 9.69288 8.64036 8.95343 9.3797C8.58376 9.74937 8.39893 10.304 8.39893 10.6737C8.39893 11.0433 8.58376 11.5979 8.95343 11.9676C9.3231 12.3373 9.69288 12.5221 10.2474 12.5221Z" fill="#279147"/>
<path d="M18.6463 12.5221C19.2008 12.5221 19.5706 12.3373 19.9403 11.9676C20.3099 11.5979 20.4948 11.2283 20.4948 10.6737C20.4948 10.304 20.3099 9.74937 19.9403 9.3797C19.2009 8.64036 18.0918 8.64036 17.3524 9.3797C16.9827 9.74937 16.7979 10.304 16.7979 10.6737C16.7979 11.0433 16.9827 11.5979 17.3524 11.9676C17.722 12.3373 18.0918 12.5221 18.6463 12.5221Z" fill="#279147"/>
<path d="M1.84846 3.9147C2.40297 3.9147 2.77275 3.72987 3.14242 3.3602C3.51209 2.99052 3.69693 2.43591 3.69693 2.06624C3.69693 1.69657 3.51209 1.14195 3.14242 0.772281C2.40308 0.0329377 1.29396 0.0329377 0.554507 0.772281C0.184836 1.14195 0 1.51162 0 2.06624C0 2.62085 0.184836 2.99052 0.554507 3.3602C0.924179 3.72987 1.29396 3.9147 1.84846 3.9147Z" fill="#279147"/>
<path d="M10.2474 3.9147C10.8019 3.9147 11.1717 3.72987 11.5413 3.3602C11.911 2.99052 12.0959 2.43591 12.0959 2.06624C12.0959 1.69657 11.911 1.14195 11.5413 0.772281C10.802 0.0329377 9.69288 0.0329377 8.95343 0.772281C8.58376 1.14195 8.39893 1.69657 8.39893 2.06624C8.39893 2.43591 8.58376 2.99052 8.95343 3.3602C9.3231 3.72987 9.69288 3.9147 10.2474 3.9147Z" fill="#279147"/>
<path d="M18.6463 3.9147C19.2008 3.9147 19.5706 3.72987 19.9403 3.3602C20.3099 2.99052 20.4948 2.62085 20.4948 2.06624C20.4948 1.69657 20.3099 1.14195 19.9403 0.772281C19.2009 0.0329377 18.0918 0.0329377 17.3524 0.772281C16.9827 1.14195 16.7979 1.69657 16.7979 2.06624C16.7979 2.43591 16.9827 2.99052 17.3524 3.3602C17.722 3.72987 18.0918 3.9147 18.6463 3.9147Z" fill="#279147"/>
</svg>
