<?xml version="1.0" encoding="utf-8"?>
<!-- Generator: Adobe Illustrator 23.0.1, SVG Export Plug-In . SVG Version: 6.00 Build 0)  -->
<svg version="1.1" id="Слой_1" xmlns="http://www.w3.org/2000/svg" xmlns:xlink="http://www.w3.org/1999/xlink" x="0px" y="0px"
	 viewBox="0 0 16 16" style="enable-background:new 0 0 16 16;" xml:space="preserve">
<style type="text/css">
	.st0{fill:#477B44;}
</style>
<ellipse class="st0" cx="8" cy="8" rx="2.7" ry="2.6"/>
<path class="st0" d="M11.4,0H4.6C2.1,0,0,2.1,0,4.6v6.8C0,13.9,2.1,16,4.6,16h6.8c2.5,0,4.6-2.1,4.6-4.6V4.6C16,2.1,13.9,0,11.4,0z
	 M8,12.1c-2.3,0-4.2-1.8-4.2-4.1c0-2.3,1.9-4.1,4.2-4.1s4.2,1.8,4.2,4.1C12.2,10.2,10.3,12.1,8,12.1z M12.3,4.7c-0.5,0-1-0.4-1-1
	c0-0.5,0.4-1,1-1c0.5,0,1,0.4,1,1C13.2,4.2,12.8,4.7,12.3,4.7z"/>
</svg>
