<svg width="11" height="18" viewBox="0 0 11 18" fill="none" xmlns="http://www.w3.org/2000/svg">
<path d="M5.39972 2.65134C5.91152 2.67552 6.39413 2.88974 6.74753 3.24961C7.10094 3.60948 7.29807 4.08742 7.29807 4.58441C7.29807 5.08141 7.10094 5.55935 6.74753 5.91922C6.39413 6.2791 5.91152 6.49331 5.39972 6.51749C4.30358 6.51749 3.40746 5.65139 3.40746 4.58518C3.40746 3.51897 4.30358 2.65134 5.39972 2.65134ZM5.39972 9.24869C6.67551 9.24828 7.89898 8.75676 8.8014 7.88207C9.70382 7.00738 10.2114 5.82105 10.2127 4.58365C10.1898 3.36042 9.67281 2.19477 8.77284 1.33753C7.87288 0.480296 6.6619 0 5.40051 0C4.13912 0 2.92814 0.480296 2.02817 1.33753C1.1282 2.19477 0.611179 3.36042 0.588362 4.58365C0.589613 5.82079 1.09698 7.00688 1.99905 7.88153C2.90113 8.75617 4.1242 9.24788 5.39972 9.24869ZM7.34789 13.0568C8.33708 12.8358 9.28134 12.4564 10.1418 11.9341C10.2984 11.8383 10.4341 11.7135 10.5411 11.5669C10.648 11.4202 10.7241 11.2546 10.7651 11.0794C10.806 10.9042 10.811 10.7229 10.7797 10.5459C10.7484 10.3689 10.6815 10.1995 10.5828 10.0476C10.484 9.89563 10.3554 9.76403 10.2042 9.6603C10.053 9.55657 9.88219 9.48274 9.70158 9.44302C9.52097 9.40331 9.33406 9.39848 9.15152 9.42883C8.96899 9.45917 8.79441 9.52409 8.63774 9.61987C7.66722 10.2097 6.54504 10.5226 5.39972 10.5226C4.25439 10.5226 3.13222 10.2097 2.1617 9.61987C2.00493 9.52394 1.83018 9.45897 1.64746 9.4287C1.46475 9.39842 1.27767 9.40344 1.09695 9.44347C0.916242 9.48349 0.745458 9.55772 0.594398 9.66192C0.443339 9.76611 0.314979 9.89821 0.216682 10.0506C0.11812 10.2024 0.0513413 10.3715 0.0201608 10.5483C-0.0110197 10.725 -0.0059911 10.906 0.034958 11.0809C0.0759072 11.2558 0.151975 11.4212 0.258818 11.5676C0.365662 11.714 0.501188 11.8385 0.657658 11.9341C1.51735 12.4567 2.46115 12.8362 3.44998 13.0568L0.761602 15.6658C0.562829 15.8564 0.42713 16.1001 0.371827 16.3659C0.316523 16.6317 0.344123 16.9074 0.451106 17.1578C0.558088 17.4083 0.739599 17.6222 0.972467 17.7722C1.20534 17.9221 1.479 18.0014 1.75852 17.9998C1.94402 17.9999 2.12771 17.9644 2.29905 17.8955C2.4704 17.8266 2.62603 17.7255 2.75702 17.5981L5.39972 15.0349L8.04557 17.5981C8.17626 17.7255 8.3316 17.8265 8.50269 17.8955C8.67377 17.9645 8.85722 18 9.04249 18C9.22777 18 9.41121 17.9645 9.5823 17.8955C9.75338 17.8265 9.90873 17.7255 10.0394 17.5981C10.1705 17.4714 10.2745 17.3208 10.3455 17.155C10.4165 16.9892 10.453 16.8115 10.453 16.6319C10.453 16.4524 10.4165 16.2747 10.3455 16.1089C10.2745 15.9431 10.1705 15.7925 10.0394 15.6658L7.34789 13.0568Z" fill="#477B44"/>
</svg>
