<svg width="24" height="25" viewBox="0 0 24 25" fill="none" xmlns="http://www.w3.org/2000/svg">
<path d="M22.0093 17.7924L16.4485 15.9165C15.7562 15.6857 14.9894 15.8793 14.4907 16.4152C13.8356 17.1299 12.7413 17.2118 11.982 16.6162L11.7065 16.4003C9.92734 15.0009 8.40134 13.3035 7.20278 11.3829C6.66679 10.5268 6.91245 9.41023 7.75365 8.85185L7.83553 8.79974C8.63206 8.27865 9.04152 7.33322 8.87769 6.38778L8.12582 1.9957C8.02904 1.44483 7.74616 0.946061 7.32187 0.58132C6.71889 0.0676666 5.90749 -0.125907 5.14071 0.0825582L5.05138 0.10489C3.25734 0.581321 1.78334 1.86918 1.0836 3.59624C0.830491 4.21411 0.689052 4.86919 0.651829 5.53177L0.592276 6.7675C0.51783 8.24892 0.696492 9.73028 1.11337 11.1522L1.44836 12.2911C1.54514 12.6261 1.67913 12.9536 1.83546 13.2663L1.93224 13.4598C3.16796 15.9313 4.91734 18.1124 7.06128 19.8544C8.95958 21.4028 11.0588 22.6832 13.2995 23.6659L13.4559 23.7329C14.6246 24.2465 15.8827 24.5368 17.1631 24.6038L18.049 24.6485C19.5602 24.7229 21.0118 24.0679 21.9497 22.8842C22.2847 22.4673 22.5378 21.9909 22.709 21.4847L23.1631 20.1447C23.5055 19.177 22.9845 18.1199 22.0093 17.7924L22.0093 17.7924Z" fill="#1A7E38"/>
</svg>
