<svg width="20" height="31" viewBox="0 0 20 31" fill="none" xmlns="http://www.w3.org/2000/svg">
<path d="M9.6195 0C12.5315 0 14.8695 0.798001 16.6335 2.394C18.4255 3.962 19.3215 6.132 19.3215 8.904C19.3215 11.648 18.4395 13.748 16.6755 15.204C14.9115 16.632 12.5735 17.346 9.6615 17.346L9.4935 20.58H4.3275L4.1175 13.44H6.0075C8.4435 13.44 10.3195 13.118 11.6355 12.474C12.9515 11.83 13.6095 10.654 13.6095 8.946C13.6095 7.714 13.2455 6.734 12.5175 6.006C11.8175 5.278 10.8515 4.914 9.6195 4.914C8.3315 4.914 7.3235 5.264 6.5955 5.964C5.8955 6.664 5.5455 7.63 5.5455 8.862H0.00149999C-0.0265 7.154 0.3375 5.628 1.0935 4.284C1.8495 2.94 2.9555 1.89 4.4115 1.134C5.8955 0.378 7.6315 0 9.6195 0ZM6.8895 30.618C5.8255 30.618 4.9435 30.296 4.2435 29.652C3.5715 28.98 3.2355 28.154 3.2355 27.174C3.2355 26.194 3.5715 25.382 4.2435 24.738C4.9435 24.066 5.8255 23.73 6.8895 23.73C7.9255 23.73 8.7795 24.066 9.4515 24.738C10.1235 25.382 10.4595 26.194 10.4595 27.174C10.4595 28.154 10.1235 28.98 9.4515 29.652C8.7795 30.296 7.9255 30.618 6.8895 30.618Z" fill="#14183E"/>
</svg>
