<svg width="16" height="16" viewBox="0 0 16 16" fill="none" xmlns="http://www.w3.org/2000/svg">
<path d="M14.6702 0.130609L0.424214 7.83218C-0.161637 8.14921 -0.13753 8.61271 0.476977 8.86378L2.29593 9.6052C2.90953 9.85582 3.84061 9.71982 4.36142 9.29953L12.2604 2.87747C12.7803 2.45536 12.8358 2.51768 12.3841 3.01574L6.13899 9.90813C5.68641 10.4057 5.8215 11.0134 6.43691 11.2618L6.64979 11.3473C7.26475 11.5929 8.27134 12.005 8.88357 12.2634L10.9013 13.1098C11.5144 13.3664 12.0152 13.5802 12.0152 13.5838C12.0152 13.5879 12.0189 13.5997 12.0221 13.5997C12.0248 13.6006 12.1699 13.0639 12.3432 12.4066L15.4193 0.751938C15.5922 0.0928564 15.2556 -0.185968 14.6702 0.130609Z" fill="#477B44"/>
<path d="M6.28319 12.5775L4.8877 11.9885C4.27592 11.7306 3.98254 12.0335 4.2359 12.6635C4.23635 12.6635 5.53223 15.882 5.49629 15.9953C5.45854 16.1081 6.7385 14.0854 6.7385 14.0854C7.10101 13.5145 6.89497 12.8363 6.28319 12.5775Z" fill="#477B44"/>
</svg>
