<svg width="21" height="12" viewBox="0 0 21 12" fill="none" xmlns="http://www.w3.org/2000/svg">
<path d="M20.8894 10.8365C20.8639 10.7818 20.8402 10.736 20.8182 10.6995C20.4536 10.0425 19.7576 9.23565 18.7299 8.27937L18.7078 8.2576L18.697 8.2464L18.6861 8.23584H18.6752C18.2087 7.79034 17.9134 7.4911 17.7897 7.33748C17.5638 7.04592 17.5127 6.7502 17.6367 6.45096C17.7245 6.22469 18.0524 5.74655 18.6209 5.01621C18.9197 4.6296 19.1565 4.31948 19.3316 4.08521C20.5926 2.40626 21.139 1.33348 20.9716 0.865897L20.9057 0.756442C20.8619 0.690513 20.7488 0.630345 20.5667 0.575618C20.3845 0.520891 20.1513 0.51225 19.8672 0.548414L16.7183 0.570817C16.6454 0.563456 16.5725 0.565377 16.4994 0.575938C16.4265 0.58714 16.3792 0.598021 16.3572 0.608902C16.3351 0.620104 16.3172 0.629065 16.3025 0.636106L16.2587 0.66907C16.2223 0.690833 16.1824 0.729239 16.1386 0.784286C16.0948 0.839013 16.0581 0.902702 16.0293 0.975991C15.6867 1.85931 15.2969 2.68054 14.8594 3.44C14.5897 3.89254 14.3417 4.28523 14.1161 4.61712C13.8902 4.94964 13.7007 5.19415 13.5476 5.35066C13.3945 5.50748 13.2559 5.63389 13.1322 5.72831C13.0082 5.82368 12.9133 5.86336 12.8481 5.84896C12.7823 5.83456 12.7203 5.81984 12.6621 5.8048C12.5602 5.73919 12.4777 5.64989 12.4161 5.5366C12.3541 5.42362 12.3122 5.28121 12.2902 5.10966C12.2684 4.93812 12.2553 4.79026 12.2521 4.66608C12.2483 4.54191 12.2502 4.36684 12.2576 4.14057C12.2649 3.9143 12.2684 3.76132 12.2684 3.68067C12.2684 3.40352 12.2739 3.10236 12.285 2.77719C12.2959 2.45235 12.3052 2.19503 12.3122 2.00525C12.3196 1.81578 12.3231 1.6148 12.3231 1.40293C12.3231 1.1917 12.3103 1.02528 12.2847 0.904622C12.2592 0.784286 12.2208 0.66779 12.17 0.554175C12.1189 0.4412 12.0441 0.353508 11.9457 0.29174C11.8473 0.229652 11.7252 0.180365 11.5795 0.14388C11.1928 0.0561886 10.701 0.00914235 10.1034 0.00146133C8.74755 -0.0126206 7.87644 0.0750712 7.49009 0.264536C7.33703 0.345187 7.19834 0.454322 7.07467 0.59322C6.94333 0.753882 6.92512 0.841894 7.02003 0.855655C7.4575 0.921584 7.76715 1.07873 7.9493 1.32676L8.01513 1.45798C8.06594 1.55335 8.11706 1.72105 8.16819 1.96172C8.21932 2.20272 8.25192 2.46899 8.26662 2.76119C8.30305 3.29406 8.30305 3.75012 8.26662 4.13001C8.23019 4.5099 8.19567 4.8053 8.16276 5.01653C8.12985 5.2284 8.08064 5.39962 8.01513 5.53116C7.9493 5.66302 7.90584 5.74335 7.88379 5.77247C7.86174 5.8016 7.84384 5.81984 7.82914 5.8272C7.73423 5.86336 7.63613 5.88193 7.53387 5.88193C7.43161 5.88193 7.30795 5.83072 7.16191 5.72831C7.01619 5.62653 6.86472 5.48571 6.70814 5.30681C6.55124 5.12823 6.37484 4.87795 6.17767 4.55663C5.98083 4.23563 5.77663 3.85606 5.5654 3.41792L5.3906 3.10012C5.28132 2.89593 5.13176 2.59829 4.94227 2.20784C4.75277 1.81738 4.585 1.43973 4.43928 1.07424C4.38081 0.921264 4.29357 0.804449 4.17693 0.723798L4.12228 0.690833C4.08585 0.661709 4.02738 0.630665 3.94717 0.598021C3.86664 0.565057 3.78323 0.541373 3.69567 0.526651L0.69983 0.548414C0.393694 0.548414 0.185982 0.618184 0.0766936 0.756762L0.0329144 0.822371C0.0108649 0.859176 0 0.917744 0 0.997754C0 1.07841 0.0220494 1.17666 0.0658287 1.29315C0.503302 2.32273 0.978803 3.3155 1.49265 4.27147C2.00682 5.22808 2.45292 5.99842 2.83223 6.58218C3.21123 7.16658 3.59757 7.71737 3.99127 8.23584C4.38496 8.75431 4.6454 9.08619 4.7729 9.23213C4.9004 9.37839 5.00043 9.48785 5.0736 9.56082L5.34683 9.82389C5.52162 9.99896 5.77887 10.2089 6.1176 10.4534C6.45665 10.6982 6.83181 10.9389 7.24371 11.1758C7.6553 11.4132 8.13496 11.6062 8.6814 11.7563C9.22816 11.9061 9.76023 11.9663 10.2776 11.9368H11.535C11.7904 11.9151 11.9834 11.835 12.1144 11.6958L12.1582 11.6411C12.1873 11.5976 12.2147 11.5297 12.2403 11.4388C12.2656 11.3476 12.2787 11.2471 12.2787 11.1377C12.271 10.8237 12.295 10.5405 12.3496 10.2889C12.4042 10.037 12.4662 9.84726 12.5356 9.71924C12.6049 9.59186 12.6829 9.48401 12.7708 9.39632C12.8583 9.30862 12.92 9.25614 12.9568 9.23757C12.9932 9.21965 13.0226 9.20685 13.0443 9.19917C13.2191 9.14092 13.4249 9.19757 13.662 9.36879C13.8988 9.54066 14.1212 9.75188 14.3289 10.0041C14.5366 10.2559 14.7862 10.5385 15.078 10.8528C15.3694 11.1668 15.6244 11.4001 15.8433 11.5534L16.0622 11.6853C16.2079 11.7726 16.3974 11.853 16.6307 11.9263C16.864 11.9989 17.0682 12.0175 17.243 11.981L20.042 11.9368C20.319 11.9368 20.5341 11.8914 20.6872 11.7998C20.8402 11.7093 20.9313 11.6081 20.9604 11.4987C20.9895 11.3892 20.9914 11.2657 20.9658 11.1265C20.9402 10.9879 20.9147 10.8912 20.8894 10.8365Z" fill="#477B44"/>
</svg>
